<svg width="250" height="250" viewBox="0 0 250 250" fill="none" xmlns="http://www.w3.org/2000/svg">
<rect width="47.619" height="47.619" rx="4" transform="matrix(-1 0 0 1 72.6191 25)" fill="#FF4740"/>
<rect width="47.619" height="47.619" rx="4" transform="matrix(-1 0 0 1 124.236 25)" fill="#FF4740"/>
<rect width="47.619" height="47.619" rx="4" transform="matrix(-1 0 0 1 175.857 25)" fill="#FF4740"/>
<rect width="47.619" height="47.619" rx="4" transform="matrix(-1 0 0 1 72.6191 76.6191)" fill="#FFC13C"/>
<rect width="47.619" height="47.619" rx="4" transform="matrix(-1 0 0 1 124.236 76.6191)" fill="#FFC13C"/>
<rect width="47.619" height="47.619" rx="4" transform="matrix(-1 0 0 1 175.857 76.6191)" fill="#FFC13C"/>
<rect width="47.619" height="47.619" rx="4" transform="matrix(-1 0 0 1 227.476 76.6191)" fill="#FFC13C"/>
<rect width="47.619" height="47.619" rx="4" transform="matrix(-1 0 0 1 227.476 25)" fill="#3C3C3C"/>
<rect width="47.619" height="47.619" rx="4" transform="matrix(-1 0 0 1 72.6191 128.238)" fill="#81EAAF"/>
<rect width="47.619" height="47.619" rx="4" transform="matrix(-1 0 0 1 124.236 128.238)" fill="#81EAAF"/>
<rect width="47.619" height="47.619" rx="4" transform="matrix(-1 0 0 1 124.236 179.857)" fill="#2B2B2B"/>
<rect width="47.619" height="47.619" rx="4" transform="matrix(-1 0 0 1 175.857 128.238)" fill="#3C3C3C"/>
<rect width="47.619" height="47.619" rx="4" transform="matrix(-1 0 0 1 175.857 179.857)" fill="#3C3C3C"/>
<rect width="47.619" height="47.619" rx="4" transform="matrix(-1 0 0 1 227.476 128.238)" fill="#2B2B2B"/>
<rect width="47.619" height="47.619" rx="4" transform="matrix(-1 0 0 1 227.476 179.857)" fill="#2B2B2B"/>
<rect width="47.619" height="47.619" rx="4" transform="matrix(-1 0 0 1 72.6191 179.857)" fill="#73F65A"/>
</svg>
